<svg width="14" height="16" viewBox="0 0 14 16" fill="none" xmlns="http://www.w3.org/2000/svg">
<path d="M11.5139 1.8876C10.9062 1.27434 10.1964 0.798968 9.40287 0.473705C7.01491 -0.501452 4.29491 0.057074 2.47434 1.89012C1.26668 3.10949 0.600098 4.66191 0.600098 6.26717C0.600098 7.86991 1.26626 9.42401 2.47434 10.6421L3.13883 11.3059C4.47242 12.6343 5.62244 13.7813 6.60916 15.3756L6.99298 16L7.37932 15.3756C8.36604 13.7813 9.51606 12.6343 10.8473 11.3074L11.5137 10.64C14.0289 8.10443 14.0289 4.42338 11.5139 1.8876ZM8.97916 8.55601C7.8828 9.66296 6.10567 9.66296 5.00911 8.55601C3.91296 7.45285 3.91296 5.66128 5.00911 4.55602C6.10567 3.45286 7.8828 3.45286 8.97916 4.55602C10.073 5.66128 10.073 7.45243 8.97916 8.55601Z" fill="#FF8D72"/>
</svg>
